<svg class="jsx-2263963463 artboard">
    <svg viewBox="-144.5598417408507 -106.13146517137882 289.1196834817014 206.1314651713788"
         xmlns="http://www.w3.org/2000/svg" xmlns:xlink="http://www.w3.org/1999/xlink" version="1.1"
         class="jsx-2263963463 artboard-inner" style="width: 416.572px; height: 297px; max-height: 100%;">
        <g transform="translate(-146.04352126607324 76.65677546983186) scale(1.3737773381690297)" fill="#232323">
            <g id="line1">
                <path d="M66.024-52.488C64.728-52.968 63.600-53.208 62.640-53.208C61.680-53.208 60.876-52.956 60.228-52.452C59.580-51.948 59.136-51.432 58.896-50.904C58.656-50.376 58.344-49.560 57.960-48.456L50.040-24.264L41.760-49.248C41.472-50.016 40.800-50.796 39.744-51.588C38.688-52.380 37.548-52.776 36.324-52.776C35.100-52.776 34.104-52.608 33.336-52.272C31.560-51.504 30.336-50.112 29.664-48.096L21.816-24.408L13.896-48.456C13.416-50.040 12.876-51.216 12.276-51.984C11.676-52.752 10.812-53.136 9.684-53.136C8.556-53.136 7.296-52.896 5.904-52.416C2.688-51.312 1.080-49.800 1.080-47.880C1.080-47.112 1.344-45.936 1.872-44.352L15.768-4.392L16.272-3.312C16.608-2.592 17.268-1.872 18.252-1.152C19.236-0.432 20.496-0.072 22.032-0.072C23.568-0.072 24.888-0.624 25.992-1.728C26.424-2.160 26.808-2.640 27.144-3.168C27.480-3.696 27.696-4.104 27.792-4.392C27.888-4.680 30.600-12.696 35.928-28.440L44.352-3.600C44.688-2.832 45.372-2.052 46.404-1.260C47.436-0.468 48.660-0.072 50.076-0.072C51.492-0.072 52.716-0.468 53.748-1.260C54.780-2.052 55.416-2.688 55.656-3.168C55.896-3.648 56.064-4.056 56.160-4.392L69.984-44.352C70.560-46.080 70.848-47.256 70.848-47.880C70.848-49.800 69.240-51.336 66.024-52.488Z"></path>
                <path d="M109.188-16.956C110.652-18.372 111.384-20.556 111.384-23.508C111.384-26.460 110.568-29.184 108.936-31.680C105.816-36.384 100.920-38.736 94.248-38.736C88.392-38.736 83.508-36.924 79.596-33.300C75.684-29.676 73.728-24.840 73.728-18.792C73.728-13.992 75.240-9.648 78.264-5.760C79.800-3.744 81.948-2.124 84.708-0.900C87.468 0.324 90.624 0.936 94.176 0.936C104.400 0.936 109.512-1.200 109.512-5.472C109.512-6.384 109.200-7.488 108.576-8.784C107.472-10.944 106.152-12.024 104.616-12.024C103.848-12.024 102.888-11.760 101.736-11.232L100.944-10.944C99.360-10.368 97.176-10.080 94.392-10.080C92.808-10.080 91.224-10.536 89.640-11.448C88.056-12.360 87.264-13.488 87.264-14.832L104.328-14.832C106.104-14.832 107.724-15.540 109.188-16.956ZM96.192-21.384L87.120-21.384C87.120-22.824 87.888-24.180 89.424-25.452C90.960-26.724 92.508-27.360 94.068-27.360C95.628-27.360 96.828-27.024 97.668-26.352C98.508-25.680 98.928-24.792 98.928-23.688C98.928-22.152 98.016-21.384 96.192-21.384Z"></path>
                <path d="M138.240-37.872L133.560-37.440L133.560-41.400C133.560-42.600 134.448-43.200 136.224-43.200L138.240-43.200C139.680-43.296 140.736-43.728 141.408-44.496C142.224-45.504 142.632-47.160 142.632-49.464C142.632-52.536 141.984-54.384 140.688-55.008C139.968-55.392 139.332-55.620 138.780-55.692C138.228-55.764 137.400-55.800 136.296-55.800C131.304-55.800 127.488-54.300 124.848-51.300C122.208-48.300 120.888-44.952 120.888-41.256L120.888-37.440L118.512-37.440C115.680-37.440 114.264-35.472 114.264-31.536C114.264-28.944 114.720-27.192 115.632-26.280C116.160-25.800 117.048-25.512 118.296-25.416L120.888-25.416L120.888-6.336C120.888-5.232 120.924-4.392 120.996-3.816C121.068-3.240 121.296-2.604 121.680-1.908C122.064-1.212 122.700-0.708 123.588-0.396C124.476-0.084 125.664 0.072 127.152 0.072C128.640 0.072 129.852-0.072 130.788-0.360C131.724-0.648 132.420-1.236 132.876-2.124C133.332-3.012 133.560-4.368 133.560-6.192L133.560-25.488L138.168-25.200C140.088-25.200 141.552-25.488 142.560-26.064C143.232-26.448 143.724-27.084 144.036-27.972C144.348-28.860 144.504-30.048 144.504-31.536C144.504-33.024 144.360-34.224 144.072-35.136C143.496-36.960 141.552-37.872 138.240-37.872Z"></path>
                <path d="M148.464-49.464L148.464-15.192C148.464-10.056 149.136-6.312 150.480-3.960C151.584-1.992 153.984-0.768 157.680-0.288C162.384 0.288 165.360 0.144 166.608-0.720C167.568-1.392 168.048-3.240 168.048-6.264C168.048-9.048 167.568-10.752 166.608-11.376C166.128-11.712 165.720-11.916 165.384-11.988C165.048-12.060 164.388-12.096 163.404-12.096C162.420-12.096 161.784-12.324 161.496-12.780C161.208-13.236 161.064-14.328 161.064-16.056L161.064-49.392C161.064-50.496 161.028-51.336 160.956-51.912C160.884-52.488 160.656-53.136 160.272-53.856C159.552-55.152 157.728-55.800 154.800-55.800C151.728-55.800 149.856-55.152 149.184-53.856C148.848-53.136 148.644-52.500 148.572-51.948C148.500-51.396 148.464-50.568 148.464-49.464Z"></path>
                <path d="M207.288-37.512C205.752-38.184 204.420-38.520 203.292-38.520C202.164-38.520 201.288-38.112 200.664-37.296C200.280-36.816 200.004-36.408 199.836-36.072C199.668-35.736 198.408-32.988 196.056-27.828C193.704-22.668 192.408-19.704 192.168-18.936C190.008-22.440 187.740-26.220 185.364-30.276C182.988-34.332 181.668-36.564 181.404-36.972C181.140-37.380 180.720-37.776 180.144-38.160C179.568-38.544 178.824-38.736 177.912-38.736C177.000-38.736 175.728-38.256 174.096-37.296C171.504-35.760 170.208-34.224 170.208-32.688C170.208-31.920 170.688-30.744 171.648-29.160L185.976-5.040C181.368 4.800 179.064 10.296 179.064 11.448C179.064 13.176 180.480 14.664 183.312 15.912C184.992 16.632 186.264 16.992 187.128 16.992C187.992 16.992 188.712 16.776 189.288 16.344C189.864 15.912 190.284 15.456 190.548 14.976C190.812 14.496 191.136 13.800 191.520 12.888L210.384-29.304C210.384-29.352 210.576-29.760 210.960-30.528C211.344-31.296 211.536-32.112 211.536-32.976C211.536-34.752 210.120-36.264 207.288-37.512Z"></path>
            </g>
        </g>
        <g transform="translate(-78.156740343213 -147.46529368851995) scale(1.5806402175900856)" id="logomark">
            <g fill="#232323">
                <path d="M93.592 46.918l-4.322-1.726a2.187 2.187 0 0 0-1.53-.034l-19.782 6.884-5.553-2.217 15.398-18.276a2.225 2.225 0 0 0-.876-3.5l-2.98-1.19a5.12 5.12 0 0 0-3.582-.08L35.273 38.99l-16.719-6.677c-5.04-2.012-10.81.465-12.823 5.505s.464 10.81 5.505 12.823l55.503 22.164c3.78 1.51 7.971.493 10.68-2.235a9.779 9.779 0 0 0 1.466-1.92c.204-.121.39-.278.55-.467l15.019-17.826a2.187 2.187 0 0 0-.862-3.44zM18.907 43.08a4.312 4.312 0 1 1-8.01-3.198 4.312 4.312 0 0 1 8.01 3.198z"></path>
                <circle cx="30.96" cy="66.96" r="4.71"></circle>
            </g>
        </g>
    </svg>
</svg>